<svg xmlns="http://www.w3.org/2000/svg" viewBox="0 0 99.41 23.11"><defs><style>.cls-1{fill:#5d00d5;}.cls-2{fill:#7de4af;}.cls-3{fill:#231f20;}</style></defs><g id="Layer_2" data-name="Layer 2"><g id="Layer_1-2" data-name="Layer 1"><path class="cls-1" d="M8.58,8.75H20.11a3,3,0,0,1,3,3v8.36a3,3,0,0,1-3,3H11.58a3,3,0,0,1-3-3V8.75A0,0,0,0,1,8.58,8.75Z"/><path class="cls-2" d="M2,0H5.91a2,2,0,0,1,2,2V7.82a0,0,0,0,1,0,0H2a2,2,0,0,1-2-2V2A2,2,0,0,1,2,0Z"/><path class="cls-3" d="M33.48,7.16v3.91L37.9,6.45A4.14,4.14,0,0,1,38.45,6,1,1,0,0,1,39,5.8a1.09,1.09,0,0,1,.79.28.92.92,0,0,1,.3.7,1.39,1.39,0,0,1-.51,1l-2.74,2.59L40,14.88a5.87,5.87,0,0,1,.5.83,1.59,1.59,0,0,1,.17.68.87.87,0,0,1-.29.65,1.14,1.14,0,0,1-.8.27,1.4,1.4,0,0,1-.77-.2,1.82,1.82,0,0,1-.5-.53c-.13-.23-.26-.43-.36-.61l-2.67-4.1-1.84,1.77v2.3a1.46,1.46,0,0,1-.32,1,1.08,1.08,0,0,1-.82.34,1.12,1.12,0,0,1-.56-.15,1.08,1.08,0,0,1-.41-.41,1.47,1.47,0,0,1-.13-.49c0-.19,0-.46,0-.82V7.16a1.51,1.51,0,0,1,.3-1,1,1,0,0,1,.82-.34,1.08,1.08,0,0,1,.82.33A1.48,1.48,0,0,1,33.48,7.16Z"/><path class="cls-3" d="M49.75,13.1a5,5,0,0,1-.29,1.71,3.63,3.63,0,0,1-.84,1.34,3.74,3.74,0,0,1-1.3.86,4.65,4.65,0,0,1-1.71.3,4.56,4.56,0,0,1-1.7-.3,3.76,3.76,0,0,1-2.14-2.21,5.09,5.09,0,0,1-.28-1.7,5,5,0,0,1,.29-1.73,3.61,3.61,0,0,1,2.13-2.19,4.63,4.63,0,0,1,1.7-.3,4.73,4.73,0,0,1,1.71.3,3.85,3.85,0,0,1,1.31.87,3.61,3.61,0,0,1,.83,1.34A4.87,4.87,0,0,1,49.75,13.1Zm-2.08,0a3.13,3.13,0,0,0-.56-2,1.94,1.94,0,0,0-2.57-.39,2,2,0,0,0-.72.93,3.74,3.74,0,0,0-.25,1.44,3.67,3.67,0,0,0,.25,1.42,2.09,2.09,0,0,0,.7.93,1.89,1.89,0,0,0,1.09.32,1.84,1.84,0,0,0,1.5-.71A3.11,3.11,0,0,0,47.67,13.1Z"/><path class="cls-3" d="M53.26,10v.25a3.67,3.67,0,0,1,1.2-1.06A3.12,3.12,0,0,1,56,8.88a3,3,0,0,1,1.47.36,2.23,2.23,0,0,1,1,1,2.27,2.27,0,0,1,.27.82,8.56,8.56,0,0,1,.06,1.12v3.86a1.35,1.35,0,0,1-.28.94.93.93,0,0,1-.74.32,1,1,0,0,1-.76-.32,1.39,1.39,0,0,1-.29-.94V12.59A3.42,3.42,0,0,0,56.36,11a1.15,1.15,0,0,0-1.14-.55,1.69,1.69,0,0,0-1,.33,2,2,0,0,0-.67.91,6.59,6.59,0,0,0-.15,1.73v2.6a1.34,1.34,0,0,1-.29.95,1,1,0,0,1-.76.31,1,1,0,0,1-.73-.32,1.39,1.39,0,0,1-.29-.94v-6a1.33,1.33,0,0,1,.26-.89.9.9,0,0,1,.7-.29.93.93,0,0,1,.5.13,1,1,0,0,1,.35.39A1.34,1.34,0,0,1,53.26,10Z"/><path class="cls-3" d="M66.56,13.61H62.51a2.73,2.73,0,0,0,.28,1.24,2,2,0,0,0,.74.81,1.88,1.88,0,0,0,1,.28,2.38,2.38,0,0,0,.68-.09,2.3,2.3,0,0,0,.6-.27,5.64,5.64,0,0,0,.53-.4L67,14.6a.7.7,0,0,1,.46-.14.77.77,0,0,1,.52.18.61.61,0,0,1,.19.49,1.32,1.32,0,0,1-.22.66,2.57,2.57,0,0,1-.66.72,3.79,3.79,0,0,1-1.12.57,4.58,4.58,0,0,1-1.54.23,4.13,4.13,0,0,1-3.11-1.14,4.24,4.24,0,0,1-1.11-3.09,5.18,5.18,0,0,1,.27-1.7,3.78,3.78,0,0,1,.8-1.35,3.4,3.4,0,0,1,1.29-.86,4.43,4.43,0,0,1,1.7-.3,4.07,4.07,0,0,1,2.09.51,3.36,3.36,0,0,1,1.3,1.32,3.51,3.51,0,0,1,.43,1.66c0,.52-.15.86-.44,1A2.73,2.73,0,0,1,66.56,13.61Zm-4.05-1.18h3.76a2.51,2.51,0,0,0-.57-1.59,1.71,1.71,0,0,0-1.32-.53,1.68,1.68,0,0,0-1.27.53A2.69,2.69,0,0,0,62.51,12.43Z"/><path class="cls-3" d="M75.19,16.36l-1.83-3-1.13,1.07v1.65a1.27,1.27,0,0,1-.31.92,1,1,0,0,1-.73.32.91.91,0,0,1-.75-.32,1.41,1.41,0,0,1-.27-.94V7.21a1.73,1.73,0,0,1,.26-1,.89.89,0,0,1,.76-.36,1,1,0,0,1,.76.32,1.44,1.44,0,0,1,.28,1v5l2.33-2.45a6.18,6.18,0,0,1,.66-.62,1,1,0,0,1,.56-.17.86.86,0,0,1,.64.25.79.79,0,0,1,.26.62c0,.3-.28.71-.84,1.21l-1.1,1,2.13,3.34c.15.25.27.44.33.57a.78.78,0,0,1,.11.37A1.09,1.09,0,0,1,77,17a.93.93,0,0,1-.71.28.83.83,0,0,1-.59-.2A4.85,4.85,0,0,1,75.19,16.36Z"/><path class="cls-3" d="M97.7,13.61h-4a2.61,2.61,0,0,0,.28,1.24,1.88,1.88,0,0,0,.74.81,1.85,1.85,0,0,0,1,.28,2.38,2.38,0,0,0,.68-.09,2.46,2.46,0,0,0,.6-.27,5.64,5.64,0,0,0,.53-.4l.63-.58a.69.69,0,0,1,.45-.14.73.73,0,0,1,.52.18.62.62,0,0,1,.2.49,1.32,1.32,0,0,1-.22.66,2.62,2.62,0,0,1-.67.72,3.61,3.61,0,0,1-1.11.57,4.64,4.64,0,0,1-1.55.23,4.15,4.15,0,0,1-3.11-1.14,4.28,4.28,0,0,1-1.1-3.09,5.18,5.18,0,0,1,.27-1.7A3.64,3.64,0,0,1,92.6,10a3.4,3.4,0,0,1,1.29-.86,4.43,4.43,0,0,1,1.7-.3,4,4,0,0,1,2.08.51A3.39,3.39,0,0,1,99,10.7a3.51,3.51,0,0,1,.43,1.66c0,.52-.15.86-.45,1A2.71,2.71,0,0,1,97.7,13.61Zm-4-1.18h3.76a2.57,2.57,0,0,0-.58-1.59,1.69,1.69,0,0,0-1.31-.53,1.67,1.67,0,0,0-1.27.53A2.69,2.69,0,0,0,93.65,12.43Z"/><path class="cls-3" d="M88,8.46v7.7a1.26,1.26,0,0,0,.25.87.82.82,0,0,0,.65.28.85.85,0,0,0,.67-.28,1.31,1.31,0,0,0,.25-.87V7.35a1,1,0,0,0-.32-.88,1.71,1.71,0,0,0-1-.23h-.7a2.63,2.63,0,0,0-.87.1.67.67,0,0,0-.35.35,6.34,6.34,0,0,0-.31.94l-1.74,6.56L82.86,7.63a6.34,6.34,0,0,0-.31-.94.67.67,0,0,0-.35-.35,2.63,2.63,0,0,0-.87-.1h-.7a1.69,1.69,0,0,0-1,.23,1,1,0,0,0-.32.88v8.81a1.28,1.28,0,0,0,.26.88.92.92,0,0,0,1.31,0,1.26,1.26,0,0,0,.25-.87V8.46l2,7.07c.06.23.14.46.2.68a2.53,2.53,0,0,0,.23.56,1.09,1.09,0,0,0,.38.39,1.14,1.14,0,0,0,.6.15,1.09,1.09,0,0,0,.74-.23,1.2,1.2,0,0,0,.37-.54,8.59,8.59,0,0,0,.29-1Z"/></g></g></svg>